<svg xmlns="http://www.w3.org/2000/svg" viewBox="0 0 512 512" width="512" height="512">
  <defs>
    <linearGradient id="bg" x1="0%" y1="0%" x2="100%" y2="100%">
      <stop offset="0%" stop-color="#059669" />
      <stop offset="100%" stop-color="#0f172a" />
    </linearGradient>
    <linearGradient id="acc" x1="0%" y1="0%" x2="100%" y2="0%">
      <stop offset="0%" stop-color="#34d399" />
      <stop offset="100%" stop-color="#10b981" />
    </linearGradient>
  </defs>
  <rect width="512" height="512" rx="128" fill="url(#bg)" />
  <g transform="translate(96, 96)">
    <!-- POS Terminal Screen Frame -->
    <rect x="20" y="20" width="280" height="200" rx="24" fill="#1e293b" stroke="url(#acc)" stroke-width="12" />
    <rect x="44" y="44" width="232" height="152" rx="12" fill="#0f172a" />
    <!-- Gamepad Icon on screen -->
    <path d="M100 120 C100 100 115 90 135 90 L185 90 C205 90 220 100 220 120 C220 140 210 160 195 160 C185 160 180 150 160 150 C140 150 135 160 125 160 C110 160 100 140 100 120 Z" fill="#10b981" opacity="0.9" />
    <!-- D-pad & Buttons -->
    <rect x="120" y="112" width="16" height="16" rx="3" fill="#ffffff" />
    <circle cx="190" cy="115" r="5" fill="#f59e0b" />
    <circle cx="200" cy="125" r="5" fill="#3b82f6" />
    <!-- POS Base & Card slot -->
    <path d="M70 230 L250 230 L270 280 L50 280 Z" fill="#334155" />
    <rect x="90" y="250" width="140" height="10" rx="5" fill="#10b981" />
  </g>
</svg>
